<svg width="21" height="20" viewBox="0 0 21 20" fill="none" xmlns="http://www.w3.org/2000/svg"><circle cx="10.5" cy="10" r="10" fill="#040404"></circle><path fill-rule="evenodd" clip-rule="evenodd" d="M16.2831 5.96934C16.4235 6.10997 16.5024 6.30059 16.5024 6.49934C16.5024 6.69809 16.4235 6.88871 16.2831 7.02934L9.78308 13.5293C9.64246 13.6698 9.45183 13.7487 9.25308 13.7487C9.05433 13.7487 8.86371 13.6698 8.72308 13.5293L5.47308 10.2793C5.3994 10.2107 5.34029 10.1279 5.2993 10.0359C5.25831 9.94388 5.23627 9.84456 5.23449 9.74386C5.23271 9.64316 5.25124 9.54313 5.28896 9.44974C5.32668 9.35635 5.38283 9.27152 5.45404 9.2003C5.52526 9.12908 5.6101 9.07294 5.70349 9.03522C5.79687 8.9975 5.8969 8.97897 5.99761 8.98075C6.09831 8.98252 6.19762 9.00457 6.28962 9.04556C6.38162 9.08655 6.46442 9.14565 6.53308 9.21934L9.25308 11.9393L15.2231 5.96934C15.3637 5.82889 15.5543 5.75 15.7531 5.75C15.9518 5.75 16.1425 5.82889 16.2831 5.96934Z" fill="white"></path></svg>