<svg width="116" height="54" viewBox="0 0 116 54" fill="none" xmlns="http://www.w3.org/2000/svg">
<g clip-path="url(#clip0_58247_9321)">
<path fill-rule="evenodd" clip-rule="evenodd" d="M110.214 3C112.865 3 115.014 5.14903 115.014 7.8C115.014 10.451 112.865 12.6 110.214 12.6H82.7857C85.4367 12.6 87.5857 14.749 87.5857 17.4C87.5857 20.051 85.4367 22.2 82.7857 22.2H97.8714C100.522 22.2 102.671 24.349 102.671 27C102.671 29.651 100.522 31.8 97.8714 31.8H90.895C87.5525 31.8 84.8428 33.949 84.8428 36.6C84.8428 38.3673 86.2143 39.9673 88.9571 41.4C91.6081 41.4 93.7571 43.549 93.7571 46.2C93.7571 48.851 91.6081 51 88.9571 51H32.0429C29.3919 51 27.2429 48.851 27.2429 46.2C27.2429 43.549 29.3919 41.4 32.0429 41.4H5.3C2.64903 41.4 0.5 39.251 0.5 36.6C0.5 33.949 2.64903 31.8 5.3 31.8H32.7286C35.3795 31.8 37.5286 29.651 37.5286 27C37.5286 24.349 35.3795 22.2 32.7286 22.2H15.5857C12.9347 22.2 10.7857 20.051 10.7857 17.4C10.7857 14.749 12.9347 12.6 15.5857 12.6H43.0143C40.3633 12.6 38.2143 10.451 38.2143 7.8C38.2143 5.14903 40.3633 3 43.0143 3H110.214ZM110.214 22.2C112.865 22.2 115.014 24.349 115.014 27C115.014 29.651 112.865 31.8 110.214 31.8C107.563 31.8 105.414 29.651 105.414 27C105.414 24.349 107.563 22.2 110.214 22.2Z" fill="#F1F8F5"/>
<g clip-path="url(#clip1_58247_9321)">
<path d="M31.7954 0V33.1364H43.884L54.5 14.7273H81.5V0H31.7954Z" fill="#DB4437"/>
<path d="M31.7954 0V33.1364H43.884L54.5 14.7273H81.5V0H31.7954Z" fill="url(#paint0_linear_58247_9321)"/>
<path d="M27.5 54H53.2114L65.1773 42.0341V33.1364H43.8227L27.5 5.0625V54Z" fill="#0F9D58"/>
<path d="M27.5 54H53.2114L65.1773 42.0341V33.1364H43.8227L27.5 5.0625V54Z" fill="url(#paint1_linear_58247_9321)"/>
<path d="M54.5002 14.7271L65.1161 33.1361L53.2729 53.9998H81.5002V14.7271H54.5002Z" fill="#FFCD40"/>
<path d="M54.5002 14.7271L65.1161 33.1361L53.2729 53.9998H81.5002V14.7271H54.5002Z" fill="url(#paint2_linear_58247_9321)"/>
<path d="M44.1602 33.0444L31.7954 12.3955L43.7613 33.1978L44.1602 33.0444Z" fill="#3E2723" fill-opacity="0.1"/>
<path d="M64.8704 33.5353L64.625 33.4126L53.1807 53.9694L64.9318 33.4126L64.8704 33.5353Z" fill="#263238" fill-opacity="0.1"/>
<path d="M54.5 14.7271V21.1702L78.5545 14.7271H54.5Z" fill="url(#paint3_radial_58247_9321)"/>
<path d="M31.7954 12.4263L49.3454 29.9763L43.884 33.1365L31.7954 12.4263Z" fill="url(#paint4_radial_58247_9321)"/>
<path d="M53.2114 53.9999L59.6546 29.9761L65.116 33.1363L53.2114 53.9999Z" fill="url(#paint5_radial_58247_9321)"/>
<path d="M54.4998 39.2725C61.2778 39.2725 66.7725 33.7778 66.7725 26.9998C66.7725 20.2217 61.2778 14.7271 54.4998 14.7271C47.7217 14.7271 42.2271 20.2217 42.2271 26.9998C42.2271 33.7778 47.7217 39.2725 54.4998 39.2725Z" fill="#F1F1F1"/>
<path d="M54.4998 36.818C59.9223 36.818 64.318 32.4223 64.318 26.9998C64.318 21.5774 59.9223 17.1816 54.4998 17.1816C49.0774 17.1816 44.6816 21.5774 44.6816 26.9998C44.6816 32.4223 49.0774 36.818 54.4998 36.818Z" fill="#4285F4"/>
<path d="M54.5 54C69.4117 54 81.5 41.9117 81.5 27C81.5 12.0883 69.4117 0 54.5 0C39.5883 0 27.5 12.0883 27.5 27C27.5 41.9117 39.5883 54 54.5 54Z" fill="url(#paint6_radial_58247_9321)"/>
<path d="M65.1159 33.1362C64.0371 34.996 62.4886 36.5397 60.6255 37.6128C58.7624 38.686 56.6501 39.2508 54.5 39.2508C52.3499 39.2508 50.2376 38.686 48.3745 37.6128C46.5114 36.5397 44.9629 34.996 43.8841 33.1362L27.5 5.36914L43.8841 33.443C44.9629 35.3028 46.5114 36.8465 48.3745 37.9197C50.2376 38.9928 52.3499 39.5576 54.5 39.5576C56.6501 39.5576 58.7624 38.9928 60.6255 37.9197C62.4886 36.8465 64.0371 35.3028 65.1159 33.443V33.1362Z" fill="white" fill-opacity="0.1"/>
<path d="M54.8068 14.7271H54.6534C57.9083 14.7271 61.03 16.0201 63.3315 18.3216C65.6331 20.6232 66.9261 23.7448 66.9261 26.9998C66.9261 30.2547 65.6331 33.3763 63.3315 35.6779C61.03 37.9795 57.9083 39.2725 54.6534 39.2725H54.8068C61.5568 39.2725 67.0795 33.7498 67.0795 26.9998C67.0795 20.2498 61.5568 14.7271 54.8068 14.7271ZM54.5 53.693C61.6343 53.6931 68.4788 50.8695 73.5378 45.8392C78.5969 40.8088 81.4595 33.9806 81.5 26.8464V26.9998C81.5 34.1606 78.6554 41.0282 73.5919 46.0917C68.5284 51.1551 61.6608 53.9998 54.5 53.9998C47.3392 53.9998 40.4716 51.1551 35.4081 46.0917C30.3446 41.0282 27.5 34.1606 27.5 26.9998V26.8464C27.5405 33.9806 30.4031 40.8088 35.4622 45.8392C40.5212 50.8695 47.3657 53.6931 54.5 53.693Z" fill="#3E2723" fill-opacity="0.1"/>
<path d="M65.2386 33.5352C66.0955 32.065 66.6314 30.43 66.8112 28.7378C66.991 27.0456 66.8106 25.3345 66.2818 23.717C66.7589 25.2811 66.9016 26.9279 66.7007 28.5507C66.4999 30.1735 65.9599 31.7359 65.1159 33.1364L53.5795 54L65.3 33.5966L65.2386 33.5352ZM54.5 0.306818C61.6343 0.306703 68.4788 3.13027 73.5378 8.16062C78.5969 13.191 81.4595 20.0192 81.5 27.1534V27C81.5 19.8392 78.6554 12.9716 73.5919 7.90812C68.5284 2.84464 61.6608 0 54.5 0C47.3392 0 40.4716 2.84464 35.4081 7.90812C30.3446 12.9716 27.5 19.8392 27.5 27V27.1534C27.5405 20.0192 30.4031 13.191 35.4622 8.16062C40.5212 3.13027 47.3657 0.306703 54.5 0.306818Z" fill="white" fill-opacity="0.2"/>
<path d="M54.4998 14.4204C47.7498 14.4204 42.2271 19.9431 42.2271 26.6931V27C42.2271 20.25 47.7498 14.7272 54.4998 14.7272H81.4998V14.4204H54.4998Z" fill="#3E2723" fill-opacity="0.2"/>
</g>
<path d="M96.7448 25.701C97.0557 25.7337 97.298 25.8666 97.472 26.0998C97.6641 26.3184 97.7438 26.583 97.7111 26.8936C97.6785 27.2043 97.5446 27.4547 97.3096 27.6449C97.0927 27.8205 96.8288 27.892 96.518 27.8593L92.6899 27.457L92.2904 31.2585C92.2577 31.5691 92.1239 31.8196 91.8889 32.0098C91.6702 32.2017 91.4055 32.2813 91.0947 32.2487C90.7838 32.216 90.5333 32.0822 90.3429 31.8473C90.169 31.6141 90.0983 31.3422 90.131 31.0315L90.5305 27.23L86.7025 26.8276C86.3917 26.795 86.1402 26.6694 85.9482 26.4508C85.7742 26.2176 85.7035 25.9457 85.7362 25.635C85.7688 25.3244 85.8936 25.0812 86.1106 24.9057C86.3456 24.7155 86.6185 24.6367 86.9293 24.6694L90.7574 25.0717L91.1595 21.2456C91.1922 20.935 91.3169 20.6919 91.5339 20.5163C91.7689 20.3261 92.0418 20.2473 92.3526 20.28C92.6635 20.3127 92.9059 20.4456 93.0798 20.6788C93.2719 20.8973 93.3516 21.1619 93.3189 21.4726L92.9168 25.2987L96.7448 25.701Z" fill="#008060"/>
<path d="M106.546 41.2591C106.767 41.2823 106.94 41.3769 107.064 41.5429C107.2 41.6984 107.257 41.8867 107.234 42.1078C107.211 42.3288 107.115 42.507 106.948 42.6424C106.794 42.7673 106.606 42.8182 106.385 42.7949L103.661 42.5086L103.376 45.2138C103.353 45.4349 103.258 45.6131 103.091 45.7485C102.935 45.8851 102.747 45.9417 102.526 45.9185C102.304 45.8952 102.126 45.8 101.991 45.6329C101.867 45.4669 101.817 45.2734 101.84 45.0523L102.124 42.3471L99.4 42.0608C99.1788 42.0376 98.9999 41.9482 98.8632 41.7926C98.7394 41.6267 98.6891 41.4332 98.7124 41.2121C98.7356 40.991 98.8244 40.818 98.9788 40.6931C99.146 40.5577 99.3402 40.5017 99.5614 40.5249L102.285 40.8113L102.572 38.0886C102.595 37.8675 102.684 37.6945 102.838 37.5696C103.005 37.4342 103.2 37.3782 103.421 37.4014C103.642 37.4247 103.814 37.5192 103.938 37.6852C104.075 37.8407 104.132 38.029 104.108 38.2501L103.822 40.9728L106.546 41.2591Z" fill="#008060"/>
<path d="M108.859 8.87726C109.091 8.90162 109.271 9.00071 109.401 9.17455C109.544 9.33747 109.604 9.53473 109.579 9.76632C109.555 9.9979 109.455 10.1846 109.28 10.3264C109.118 10.4573 108.922 10.5105 108.69 10.4862L105.836 10.1862L105.538 13.0201C105.514 13.2517 105.414 13.4384 105.239 13.5802C105.076 13.7233 104.879 13.7826 104.647 13.7583C104.415 13.7339 104.228 13.6342 104.087 13.4591C103.957 13.2852 103.904 13.0825 103.929 12.8509L104.226 10.0171L101.373 9.71712C101.141 9.69277 100.954 9.59913 100.81 9.4362C100.681 9.26237 100.628 9.05966 100.652 8.82807C100.677 8.59649 100.77 8.41525 100.932 8.28437C101.107 8.14258 101.31 8.08386 101.542 8.10821L104.396 8.40814L104.695 5.55598C104.72 5.32439 104.813 5.14316 104.974 5.01227C105.15 4.87048 105.353 4.81176 105.585 4.83612C105.816 4.86047 105.997 4.95957 106.127 5.1334C106.27 5.29633 106.329 5.49358 106.305 5.72517L106.005 8.57733L108.859 8.87726Z" fill="#008060"/>
</g>
<defs>
<linearGradient id="paint0_linear_58247_9321" x1="34.0352" y1="20.8636" x2="50.1431" y2="11.475" gradientUnits="userSpaceOnUse">
<stop stop-color="#A52714" stop-opacity="0.6"/>
<stop offset="0.7" stop-color="#A52714" stop-opacity="0"/>
</linearGradient>
<linearGradient id="paint1_linear_58247_9321" x1="59.0716" y1="48.3239" x2="41.1534" y2="37.8307" gradientUnits="userSpaceOnUse">
<stop stop-color="#055524" stop-opacity="0.4"/>
<stop offset="0.3" stop-color="#055524" stop-opacity="0"/>
</linearGradient>
<linearGradient id="paint2_linear_58247_9321" x1="62.7536" y1="13.1316" x2="67.2639" y2="32.86" gradientUnits="userSpaceOnUse">
<stop stop-color="#EA6100" stop-opacity="0.3"/>
<stop offset="0.7" stop-color="#EA6100" stop-opacity="0"/>
</linearGradient>
<radialGradient id="paint3_radial_58247_9321" cx="0" cy="0" r="1" gradientUnits="userSpaceOnUse" gradientTransform="translate(53.3341 14.7271) scale(25.8034 25.8034)">
<stop stop-color="#3E2723" stop-opacity="0.2"/>
<stop offset="1" stop-color="#3E2723" stop-opacity="0"/>
</radialGradient>
<radialGradient id="paint4_radial_58247_9321" cx="0" cy="0" r="1" gradientUnits="userSpaceOnUse" gradientTransform="translate(31.7647 12.4263) scale(23.9318 23.9318)">
<stop stop-color="#3E2723" stop-opacity="0.2"/>
<stop offset="1" stop-color="#3E2723" stop-opacity="0"/>
</radialGradient>
<radialGradient id="paint5_radial_58247_9321" cx="0" cy="0" r="1" gradientUnits="userSpaceOnUse" gradientTransform="translate(54.4387 27.0306) scale(26.9693 26.9693)">
<stop stop-color="#263238" stop-opacity="0.2"/>
<stop offset="1" stop-color="#263238" stop-opacity="0"/>
</radialGradient>
<radialGradient id="paint6_radial_58247_9321" cx="0" cy="0" r="1" gradientUnits="userSpaceOnUse" gradientTransform="translate(35.5693 7.36364) scale(54.2455)">
<stop stop-color="white" stop-opacity="0.1"/>
<stop offset="1" stop-color="white" stop-opacity="0"/>
</radialGradient>
<clipPath id="clip0_58247_9321">
<rect width="115" height="54" fill="white" transform="translate(0.5)"/>
</clipPath>
<clipPath id="clip1_58247_9321">
<rect x="27.5" width="54" height="54" rx="27" fill="white"/>
</clipPath>
</defs>
</svg>
