<svg width="27" height="26" viewBox="0 0 27 26" fill="none" xmlns="http://www.w3.org/2000/svg">
<rect x="0.5" width="26" height="26" rx="13" fill="url(#paint0_linear_60063_12987)"/>
<path d="M9.56484 20.8633C10.3529 20.7603 11.1321 20.6819 11.9292 20.6192C12.3232 20.5812 12.7173 20.5566 13.1113 20.5319C13.5054 20.5073 13.8994 20.4737 14.2935 20.458C15.0794 20.4222 15.8608 20.3752 16.6556 20.3595C17.4504 20.3439 18.2229 20.3103 19.0199 20.308H19.105H19.0781H19.1028H19.1632C19.2119 20.2931 19.2592 20.2736 19.3043 20.2498C19.3565 20.2209 19.406 20.1872 19.452 20.1491C19.4996 20.1111 19.5431 20.0684 19.5819 20.0215C19.6457 19.9482 19.691 19.8606 19.714 19.7662C19.7263 19.714 19.7338 19.6608 19.7364 19.6072C19.7386 19.5804 19.7386 19.5535 19.7364 19.5266V19.4886L19.723 19.4192C19.62 18.5594 19.4991 17.7041 19.4162 16.8421L19.2796 15.5503L19.1655 14.2562C19.0871 13.3942 19.0334 12.5277 18.9819 11.6634C18.9304 10.7992 18.8968 9.92826 18.8968 9.05507C18.8968 9.04616 18.9003 9.03762 18.9066 9.03132C18.9129 9.02502 18.9215 9.02149 18.9304 9.02149C18.9385 9.02141 18.9465 9.02433 18.9527 9.02969C18.9588 9.03505 18.9629 9.04248 18.9639 9.05059L20.379 19.3341C20.4237 19.5346 20.4237 19.7426 20.379 19.9431C20.3239 20.1333 20.2241 20.3076 20.0879 20.4513C19.953 20.6024 19.7923 20.7283 19.6132 20.823C19.4306 20.9233 19.2235 20.9706 19.0154 20.9596L9.56484 20.9372C9.5563 20.9372 9.54808 20.934 9.54185 20.9281C9.53561 20.9223 9.53182 20.9143 9.53125 20.9058C9.53118 20.8977 9.5341 20.8897 9.53946 20.8835C9.54482 20.8774 9.55225 20.8733 9.56036 20.8722L9.56484 20.8633Z" fill="white"/>
<path d="M17.1295 8.93877H16.2339V6.76028C16.2444 6.3895 16.1805 6.02037 16.0459 5.67473C15.9113 5.32909 15.7087 5.01396 15.4502 4.74798C15.1916 4.48199 14.8824 4.27056 14.5407 4.12618C14.199 3.9818 13.8319 3.90741 13.4609 3.90741C13.09 3.90741 12.7229 3.9818 12.3812 4.12618C12.0395 4.27056 11.7303 4.48199 11.4717 4.74798C11.2132 5.01396 11.0106 5.32909 10.876 5.67473C10.7414 6.02037 10.6775 6.3895 10.688 6.76028V8.93877H9.79018V6.76028C9.77809 6.27089 9.86404 5.78404 10.043 5.32838C10.2219 4.87271 10.4902 4.45746 10.832 4.10706C11.1739 3.75666 11.5824 3.4782 12.0335 3.28807C12.4846 3.09795 12.9692 3 13.4587 3C13.9482 3 14.4328 3.09795 14.8839 3.28807C15.335 3.4782 15.7435 3.75666 16.0854 4.10706C16.4272 4.45746 16.6955 4.87271 16.8744 5.32838C17.0534 5.78404 17.1393 6.27089 17.1272 6.76028L17.1295 8.93877Z" fill="white"/>
<path d="M9.78959 7.41846H8.39472L6.58789 20.9999H7.68721C8.24386 20.9854 8.77662 20.7708 9.18785 20.3953C9.59907 20.0199 9.86119 19.5088 9.92616 18.9558C9.92616 18.9558 10.1366 17.3415 10.374 15.5973H13.5107C13.838 15.5973 14.1621 15.5327 14.4644 15.4071C14.7666 15.2815 15.0411 15.0974 15.272 14.8655C15.5029 14.6335 15.6858 14.3582 15.81 14.0554C15.9342 13.7526 15.9974 13.4282 15.996 13.1009V12.8233H10.7255C10.8307 12.0105 10.9113 11.4127 10.927 11.2941C10.9788 11.0084 11.1236 10.7478 11.3389 10.553C11.5704 10.3431 11.8728 10.2287 12.1853 10.2328C13.26 10.2328 16.1818 10.2127 16.1818 10.2127C16.8409 10.2127 17.473 9.95083 17.9391 9.48476C18.4052 9.01869 18.667 8.38656 18.667 7.72743V7.41846H9.78959Z" fill="white"/>
<defs>
<linearGradient id="paint0_linear_60063_12987" x1="-0.412035" y1="26.311" x2="26.4214" y2="0.637726" gradientUnits="userSpaceOnUse">
<stop stop-color="#060094"/>
<stop offset="0.41" stop-color="#71098A"/>
<stop offset="0.82" stop-color="#D71281"/>
<stop offset="1" stop-color="#FF157D"/>
</linearGradient>
</defs>
</svg>
