<svg width="16" height="14" viewBox="0 0 16 14" fill="none" xmlns="http://www.w3.org/2000/svg">
<path fill-rule="evenodd" clip-rule="evenodd" d="M0.5 1.25C0.5 0.835786 0.835786 0.5 1.25 0.5H12.25C12.6642 0.5 13 0.835786 13 1.25V3H14.75C15.1642 3 15.5 3.33579 15.5 3.75V7.5C15.5 7.91421 15.1642 8.25 14.75 8.25C14.3358 8.25 14 7.91421 14 7.5V7H4.5V10.25V12H8.5C8.91421 12 9.25 12.3358 9.25 12.75C9.25 13.1642 8.91421 13.5 8.5 13.5H3.75C3.33579 13.5 3 13.1642 3 12.75V11H1.25C0.835786 11 0.5 10.6642 0.5 10.25V1.25ZM14 4.5V5.5H4.5V4.5H14ZM11.5 2V3H3.75C3.33579 3 3 3.33579 3 3.75V9.5H2V2H11.5ZM10.5652 8.45939C10.395 8.41707 10.215 8.46704 10.091 8.59106C9.96696 8.71509 9.917 8.89503 9.95931 9.06525L11.0806 13.5757C11.1241 13.7506 11.2584 13.8886 11.4321 13.9368C11.6058 13.985 11.792 13.936 11.9194 13.8086L13.0836 12.6444L13.9246 13.4854C14.1199 13.6806 14.4365 13.6806 14.6317 13.4854L14.9853 13.1318C15.1805 12.9365 15.1805 12.62 14.9853 12.4247L14.1443 11.5837L15.3085 10.4195C15.436 10.292 15.4849 10.1058 15.4367 9.93215C15.3885 9.75847 15.2505 9.6242 15.0756 9.58071L10.5652 8.45939Z" fill="#005BD3"/>
</svg>
